P2
128 128
255
0 0 0 0 0 0 0 0 0 0 0 0 0 0 0 0 0 0 0 0 0 0 0 0 0 0 0 0 0 0 0 0 0 0 0 0 0 0 0 0 0 0 0 0 0 0 0 0 0 0 0 0 0 0 0 0 0 0 0 0 0 0 0 0 0 0 0 0 0 0 0 0 0 0 0 0 0 0 0 0 0 0 0 0 0 0 0 0 0 0 0 0 0 0 0 0 0 0 0 0 0 0 0 0 0 0 0 0 0 0 0 0 0 0 0 0 0 0 0 0 0 0 0 0 0 0 0 0 
0 0 0 0 0 0 0 0 0 0 0 0 0 0 0 0 0 0 0 0 0 0 0 0 0 0 0 0 0 0 0 0 0 0 0 0 0 0 0 0 0 0 0 0 0 0 0 0 0 0 0 0 0 0 0 0 0 0 0 0 0 0 0 0 0 0 0 0 0 0 0 0 0 0 0 0 0 0 0 0 0 0 0 0 0 0 0 0 0 0 0 0 0 0 0 0 0 0 0 0 0 0 0 0 0 0 0 0 0 0 0 0 0 0 0 0 0 0 0 0 0 0 0 0 0 0 0 0 
0 0 0 0 0 0 0 0 0 0 0 0 0 0 0 0 0 0 0 0 0 0 0 0 0 0 0 0 0 0 0 0 0 0 0 0 0 0 0 0 0 0 0 0 0 0 0 0 0 0 0 0 0 0 0 0 0 0 0 0 0 0 0 0 0 0 0 0 0 0 0 0 0 0 0 0 0 0 0 0 0 0 0 0 0 0 0 0 0 0 0 0 0 0 0 0 0 0 0 0 0 0 0 0 0 0 0 0 0 0 0 0 0 0 0 0 0 0 0 0 0 0 0 0 0 0 0 0 
0 0 0 0 0 0 0 0 0 0 0 0 0 0 0 0 0 0 0 0 0 0 0 0 0 0 0 0 0 0 0 0 0 0 0 0 0 0 0 0 0 0 0 0 0 0 0 0 0 0 0 0 0 0 0 0 0 0 0 0 0 0 0 0 0 0 0 0 0 0 0 0 0 0 0 0 0 0 0 0 0 0 0 0 0 0 0 0 0 0 0 0 0 0 0 0 0 0 0 0 0 0 0 0 0 0 0 0 0 0 0 0 0 0 0 0 0 0 0 0 0 0 0 0 0 0 0 0 
0 0 0 0 0 0 0 0 0 0 0 0 0 0 0 0 0 0 0 0 0 0 0 0 0 0 0 0 0 0 0 0 0 0 0 0 0 0 0 0 0 0 0 0 0 0 0 0 0 0 0 0 0 0 0 0 0 0 0 0 0 0 0 0 0 0 0 0 0 0 0 0 0 0 0 0 0 0 0 0 0 0 0 0 0 0 0 0 0 0 0 0 0 0 0 0 0 0 0 0 0 0 0 0 0 0 0 0 0 0 0 0 0 0 0 0 0 0 0 0 0 0 0 0 0 0 0 0 
0 0 0 0 0 0 0 0 0 0 0 0 0 0 0 0 0 0 0 0 0 0 0 0 0 0 0 0 0 0 0 0 0 0 0 0 0 0 0 0 0 0 0 0 0 0 0 0 0 0 0 0 0 0 0 0 0 0 0 0 0 0 0 0 0 0 0 0 0 0 0 0 0 0 0 0 0 0 0 0 0 0 0 0 0 0 0 0 0 0 0 0 0 0 0 0 0 0 0 0 0 0 0 0 0 0 0 0 0 0 0 0 0 0 0 0 0 0 0 0 0 0 0 0 0 0 0 0 
0 0 0 0 0 0 0 0 0 0 0 0 0 0 0 0 0 0 0 0 0 0 0 0 0 0 0 0 0 0 0 0 0 0 0 0 0 0 0 0 0 0 0 0 0 0 0 0 0 0 0 0 0 0 0 0 0 0 0 0 0 0 0 0 0 0 0 0 0 0 0 0 0 0 0 0 0 0 0 0 0 0 0 0 0 0 0 0 0 0 0 0 0 0 0 0 0 0 0 0 0 0 0 0 0 0 0 0 0 0 0 0 0 0 0 0 0 0 0 0 0 0 0 0 0 0 0 0 
0 0 0 0 0 0 0 0 0 0 0 0 0 0 0 0 0 0 0 0 0 0 0 0 0 0 0 0 0 0 0 0 0 0 0 0 0 0 0 0 0 0 0 0 0 0 0 0 0 0 0 0 0 0 0 0 0 0 0 0 0 0 0 0 0 0 0 0 0 0 0 0 0 0 0 0 0 0 0 0 0 0 0 0 0 0 0 0 0 0 0 0 0 0 0 0 0 0 0 0 0 0 0 0 0 0 0 0 0 0 0 0 0 0 0 0 0 0 0 0 0 0 0 0 0 0 0 0 
0 0 0 0 0 0 0 0 0 0 0 0 0 0 0 0 0 0 0 0 0 0 0 0 0 0 0 0 0 0 0 0 0 0 0 0 0 0 0 0 0 0 0 0 0 0 0 0 0 0 0 0 0 0 0 0 0 0 0 0 0 0 0 0 0 0 0 0 0 0 0 0 0 0 0 0 0 0 0 0 0 0 0 0 0 0 0 0 0 0 0 0 0 0 0 0 0 0 0 0 0 0 0 0 0 0 0 0 0 0 0 0 0 0 0 0 0 0 0 0 0 0 0 0 0 0 0 0 
0 0 0 0 0 0 0 0 0 0 0 0 0 0 0 0 0 0 0 0 0 0 0 0 0 0 0 0 0 0 0 0 0 0 0 0 0 0 0 0 0 0 0 0 0 0 0 0 0 0 0 0 0 0 0 0 0 0 0 0 0 0 0 0 0 0 0 0 0 0 0 0 0 0 0 0 0 0 0 0 0 0 0 0 0 0 0 0 0 0 0 0 0 0 0 0 0 0 0 0 0 0 0 0 0 0 0 0 0 0 0 0 0 0 0 0 0 0 0 0 0 0 0 0 0 0 0 0 
0 0 0 0 0 0 0 0 0 0 0 0 0 0 0 0 0 0 0 0 0 0 0 0 0 0 0 0 0 0 0 0 0 0 0 0 0 0 0 0 0 0 0 0 0 0 0 0 0 0 0 0 0 0 0 0 0 0 0 0 0 0 0 0 0 0 0 0 0 0 0 0 0 0 0 0 0 0 0 0 0 0 0 0 0 0 0 0 0 0 0 0 0 0 0 0 0 0 0 0 0 0 0 0 0 0 0 0 0 0 0 0 0 0 0 0 0 0 0 0 0 0 0 0 0 0 0 0 
0 0 0 0 0 0 0 0 0 0 0 0 0 0 0 0 0 0 0 0 0 0 0 0 0 0 0 0 0 0 0 0 0 0 0 0 0 0 0 0 0 0 0 0 0 0 0 0 0 0 0 0 0 0 0 0 0 0 0 0 0 0 0 0 0 0 0 0 0 0 0 0 0 0 0 0 0 0 0 0 0 0 0 0 0 0 0 0 0 0 0 0 0 0 0 0 0 0 0 0 0 0 0 0 0 0 0 0 0 0 0 0 0 0 0 0 0 0 0 0 0 0 0 0 0 0 0 0 
0 0 0 0 0 0 0 0 0 0 0 0 0 0 0 0 0 0 0 0 0 0 0 0 0 0 0 0 0 0 0 0 0 0 0 0 0 0 0 0 0 0 0 0 0 0 0 0 0 0 0 0 0 0 0 0 0 0 0 0 0 0 0 0 0 0 0 0 0 0 0 0 0 0 0 0 0 0 0 0 0 0 0 0 0 0 0 0 0 0 0 0 0 0 0 0 0 0 0 0 0 0 0 0 0 0 0 0 0 0 0 0 0 0 0 0 0 0 0 0 0 0 0 0 0 0 0 0 
0 0 0 0 0 0 0 0 0 0 0 0 0 0 0 0 0 0 0 0 0 0 0 0 0 0 0 0 0 0 0 0 0 0 0 0 0 0 0 0 0 0 0 0 0 0 0 0 0 0 0 0 0 0 0 0 0 0 0 0 0 0 0 0 0 0 0 0 0 0 0 0 0 0 0 0 0 0 0 0 0 0 0 0 0 0 0 0 0 0 0 0 0 0 0 0 0 0 0 0 0 0 0 0 0 0 0 0 0 0 0 0 0 0 0 0 0 0 0 0 0 0 0 0 0 0 0 0 
0 0 0 0 0 0 0 0 0 0 0 0 0 0 0 0 0 0 0 0 0 0 0 0 0 0 0 0 0 0 0 0 0 0 0 0 0 0 0 0 0 0 0 0 0 0 0 0 0 0 0 0 0 0 0 0 0 0 0 0 0 0 0 0 0 0 0 0 0 0 0 0 0 0 0 0 0 0 0 0 0 0 0 0 0 0 0 0 0 0 0 0 0 0 0 0 0 0 0 0 0 0 0 0 0 0 0 0 0 0 0 0 0 0 0 0 0 0 0 0 0 0 0 0 0 0 0 0 
0 0 0 0 0 0 0 0 0 0 0 0 0 0 0 0 0 0 0 0 0 0 0 0 0 0 0 0 0 0 0 0 0 0 0 0 0 0 0 0 0 0 0 0 0 0 0 0 0 0 0 0 0 0 0 0 0 0 0 0 0 0 0 0 0 0 0 0 0 0 0 0 0 0 0 0 0 0 0 0 0 0 0 0 0 0 0 0 0 0 0 0 0 0 0 0 0 0 0 0 0 0 0 0 0 0 0 0 0 0 0 0 0 0 0 0 0 0 0 0 0 0 0 0 0 0 0 0 
0 0 0 0 0 0 0 0 0 0 0 0 0 0 0 0 0 0 0 0 0 0 0 0 0 0 0 0 0 0 0 0 0 0 0 0 0 0 0 0 0 0 0 0 0 0 0 0 0 0 0 0 0 0 0 0 0 0 0 0 0 0 0 0 0 0 0 0 0 0 0 0 0 0 0 0 0 0 0 0 0 0 0 0 0 0 0 0 0 0 0 0 0 0 0 0 0 0 0 0 0 0 0 0 0 0 0 0 0 0 0 0 0 0 0 0 0 0 0 0 0 0 0 0 0 0 0 0 
0 0 0 0 0 0 0 0 0 0 0 0 0 0 0 0 0 0 0 0 0 0 0 0 0 0 0 0 0 0 0 0 0 0 0 0 0 0 0 0 1 6 3 4 1 0 0 0 0 0 6 2 0 0 0 0 0 0 0 0 0 0 0 0 0 0 0 0 0 0 0 0 0 0 0 0 0 0 0 0 0 0 0 0 0 0 0 0 0 0 0 0 0 0 0 0 0 0 0 0 0 0 0 0 0 0 0 0 0 0 0 0 0 0 0 0 0 0 0 0 0 0 0 0 0 0 0 0 
0 0 0 0 0 0 0 0 0 0 0 0 0 0 0 0 0 0 0 0 0 0 0 0 0 0 0 0 0 0 0 0 0 0 0 0 0 0 0 0 20 62 50 39 30 20 13 0 14 56 60 39 24 21 27 23 14 5 1 0 0 0 0 0 0 0 0 0 0 0 0 0 0 0 0 0 0 0 0 0 0 0 0 0 0 0 0 0 0 0 0 0 0 0 0 0 0 0 0 0 0 0 0 0 0 0 0 0 0 0 0 0 0 0 0 0 0 0 0 0 0 0 0 0 0 0 0 0 
0 0 0 0 0 0 0 0 0 0 0 0 0 0 0 0 0 0 0 0 0 0 0 0 0 0 0 0 0 0 0 0 0 0 0 0 0 8 27 38 39 51 65 86 92 93 68 53 56 63 70 83 89 85 77 74 84 81 71 49 38 20 4 2 7 14 13 8 2 0 0 0 0 0 0 0 0 0 0 0 0 0 0 0 0 0 0 0 0 0 0 0 0 0 0 0 0 0 0 0 0 0 0 0 0 0 0 0 0 0 0 0 0 0 0 0 0 0 0 0 0 0 0 0 0 0 0 0 
0 0 0 0 0 0 0 0 0 0 0 0 0 0 0 0 0 0 0 0 0 0 0 0 0 0 0 0 0 0 0 0 0 0 2 12 28 61 97 108 104 94 80 114 120 116 113 120 108 69 65 107 118 116 115 96 86 81 95 117 125 103 45 31 52 68 63 58 38 33 33 14 0 0 0 0 0 0 0 0 0 0 0 0 0 0 0 0 0 0 0 0 0 0 0 0 0 0 0 0 0 0 0 0 0 0 0 0 0 0 0 0 0 0 0 0 0 0 0 0 0 0 0 0 0 0 0 0 
0 0 0 0 0 0 0 0 0 0 0 0 0 0 0 0 0 0 0 0 0 0 0 0 0 0 0 0 0 0 0 0 7 26 54 83 92 101 111 117 122 112 76 58 78 115 127 124 119 103 67 87 120 130 130 126 112 83 59 84 126 132 79 61 58 51 32 53 57 72 96 86 49 13 0 0 0 0 0 0 0 0 0 0 0 0 0 0 0 0 0 0 0 0 0 0 0 0 0 0 0 0 0 0 0 0 0 0 0 0 0 0 0 0 0 0 0 0 0 0 0 0 0 0 0 0 0 0 
0 0 0 0 0 0 0 0 0 0 0 0 0 0 0 0 0 0 0 0 0 0 0 0 0 0 0 0 0 0 12 43 83 110 118 123 118 117 122 112 94 80 86 82 70 74 110 118 112 122 113 85 85 120 133 134 127 112 92 72 88 130 82 73 91 112 96 87 80 58 54 54 57 48 26 16 2 0 0 0 0 0 0 0 0 0 0 0 0 0 0 0 0 0 0 0 0 0 0 0 0 0 0 0 0 0 0 0 0 0 0 0 0 0 0 0 0 0 0 0 0 0 0 0 0 0 0 0 
0 0 0 0 0 0 0 0 0 0 0 0 0 0 0 0 0 0 0 0 0 0 0 0 0 0 0 0 5 33 66 88 97 93 92 101 106 115 126 125 112 101 109 106 91 81 75 106 116 130 127 110 87 83 119 135 134 120 109 105 74 82 69 65 82 102 117 130 112 101 101 73 56 87 105 97 60 21 2 0 0 0 0 0 0 0 0 0 0 0 0 0 0 0 0 0 0 0 0 0 0 0 0 0 0 0 0 0 0 0 0 0 0 0 0 0 0 0 0 0 0 0 0 0 0 0 0 0 
0 0 0 0 0 0 0 0 0 0 0 0 0 0 0 0 0 0 0 0 0 0 0 0 0 0 0 7 47 71 68 77 82 78 77 80 74 77 84 85 82 77 71 67 71 98 80 90 105 98 78 84 110 88 99 125 121 104 95 82 80 50 43 57 73 94 81 65 72 112 120 107 76 66 120 125 110 86 52 14 1 0 0 0 0 0 0 0 0 0 0 0 0 0 0 0 0 0 0 0 0 0 0 0 0 0 0 0 0 0 0 0 0 0 0 0 0 0 0 0 0 0 0 0 0 0 0 0 
0 0 0 0 0 0 0 0 0 0 0 0 0 0 0 0 0 0 0 0 0 0 0 0 0 0 5 49 70 82 97 107 112 112 118 121 121 111 108 102 106 110 110 106 117 126 95 70 77 92 77 97 111 86 98 102 80 65 85 88 89 70 38 75 122 123 113 80 48 54 83 116 114 69 79 74 71 74 69 55 29 17 3 0 0 0 0 0 0 0 0 0 0 0 0 0 0 0 0 0 0 0 0 0 0 0 0 0 0 0 0 0 0 0 0 0 0 0 0 0 0 0 0 0 0 0 0 0 
0 0 0 0 0 0 0 0 0 0 0 0 0 0 0 0 0 0 0 0 0 0 0 0 3 6 51 88 82 100 100 85 99 124 127 128 127 129 124 104 118 123 120 104 118 126 86 63 113 122 81 63 56 52 70 78 90 79 120 135 118 89 72 100 132 122 124 122 97 87 74 73 90 76 59 85 109 108 79 54 49 42 31 10 2 0 0 0 0 0 0 0 0 0 0 0 0 0 0 0 0 0 0 0 0 0 0 0 0 0 0 0 0 0 0 0 0 0 0 0 0 0 0 0 0 0 0 0 
0 0 0 0 0 0 0 0 0 0 0 0 0 0 0 0 0 0 0 0 0 0 3 35 74 47 77 73 76 104 110 95 69 109 125 129 128 128 104 101 124 130 108 92 123 117 69 102 132 132 117 85 61 48 43 73 119 118 119 126 97 100 76 72 79 78 96 124 129 123 114 95 78 69 61 60 85 110 123 98 56 53 57 33 26 24 12 2 0 0 0 0 0 0 0 0 0 0 0 0 0 0 0 0 0 0 0 0 0 0 0 0 0 0 0 0 0 0 0 0 0 0 0 0 0 0 0 0 
0 0 0 0 0 0 0 0 0 0 0 0 0 0 0 0 0 0 0 0 0 1 52 106 80 75 84 85 89 92 89 83 64 88 122 131 131 111 79 117 127 128 97 85 109 81 88 129 135 136 134 126 112 88 76 73 84 130 130 128 103 80 54 69 98 102 74 85 130 126 118 113 115 104 80 76 66 67 110 120 112 91 74 63 61 59 57 39 24 16 11 4 0 0 0 0 0 0 0 0 0 0 0 0 0 0 0 0 0 0 0 0 0 0 0 0 0 0 0 0 0 0 0 0 0 0 0 0 
0 0 0 0 0 0 0 0 0 0 0 0 0 0 0 0 0 0 0 0 1 18 79 72 95 119 126 120 113 116 120 112 82 88 122 121 103 70 99 126 127 116 85 50 64 52 78 119 131 136 136 137 135 125 103 89 81 95 127 132 130 111 109 112 116 120 109 62 99 128 123 116 96 82 81 70 65 84 78 74 88 108 121 113 106 99 91 78 71 57 38 36 14 2 0 0 0 0 0 0 0 0 0 0 0 0 0 0 0 0 0 0 0 0 0 0 0 0 0 0 0 0 0 0 0 0 0 0 
0 0 0 0 0 0 0 0 0 0 0 0 0 0 0 0 0 0 0 1 29 74 73 54 95 89 83 80 77 90 116 130 92 95 124 106 88 106 124 130 123 91 66 79 108 107 77 83 113 122 129 136 136 137 129 112 102 80 83 120 134 125 129 134 129 129 128 88 77 125 129 122 102 77 77 72 66 102 118 110 92 75 115 123 124 129 129 120 97 91 71 54 54 42 9 0 0 0 0 0 0 0 0 0 0 0 0 0 0 0 0 0 0 0 0 0 0 0 0 0 0 0 0 0 0 0 0 0 
0 0 0 0 0 0 0 0 0 0 0 0 0 0 0 0 0 0 2 22 81 109 84 66 104 104 108 97 84 79 75 109 93 102 125 119 123 128 121 117 97 62 80 110 126 126 108 64 84 107 117 131 138 138 140 135 127 117 98 82 103 131 139 140 136 133 135 118 72 117 135 131 126 119 110 98 84 77 111 130 124 79 71 72 68 81 101 125 125 121 112 97 76 68 68 28 2 0 0 0 0 0 0 0 0 0 0 0 0 0 0 0 0 0 0 0 0 0 0 0 0 0 0 0 0 0 0 0 
0 0 0 0 0 0 0 0 0 0 0 0 0 0 0 0 0 1 26 54 103 114 79 60 115 127 126 94 97 109 93 75 74 104 124 132 135 134 89 82 63 77 111 123 134 133 128 96 72 74 77 108 132 135 135 138 135 131 127 112 82 101 136 142 141 135 137 130 91 109 138 138 134 127 119 108 109 107 92 110 118 101 92 102 86 75 69 73 101 126 129 127 115 87 74 86 49 10 0 0 0 0 0 0 0 0 0 0 0 0 0 0 0 0 0 0 0 0 0 0 0 0 0 0 0 0 0 0 
0 0 0 0 0 0 0 0 0 0 0 0 0 0 0 0 0 10 36 76 99 104 100 48 97 115 88 88 119 124 106 88 59 105 125 131 135 133 94 63 60 108 125 123 132 136 137 127 112 98 78 64 98 121 132 135 137 136 137 129 114 91 93 110 127 125 135 135 111 94 132 127 122 131 133 129 133 136 123 103 112 115 93 124 116 114 99 85 73 74 84 105 125 120 98 75 86 57 15 1 0 0 0 0 0 0 0 0 0 0 0 0 0 0 0 0 0 0 0 0 0 0 0 0 0 0 0 0 
0 0 0 0 0 0 0 0 0 0 0 0 0 0 0 0 2 35 59 101 101 77 101 83 55 77 100 122 128 129 98 75 50 77 85 91 95 109 122 85 79 126 128 111 108 127 134 135 131 128 118 93 80 80 96 122 133 138 137 133 130 120 109 90 94 122 134 133 122 96 109 105 87 102 125 135 140 142 137 128 122 115 89 115 136 128 127 122 105 92 83 70 77 101 116 100 77 76 73 39 4 0 0 0 0 0 0 0 0 0 0 0 0 0 0 0 0 0 0 0 0 0 0 0 0 0 0 0 
0 0 0 0 0 0 0 0 0 0 0 0 0 0 0 7 47 62 71 92 112 104 74 87 77 108 122 128 120 113 78 95 103 100 100 100 98 86 84 86 108 131 130 125 105 92 111 131 138 137 124 119 114 110 88 85 113 133 134 137 141 134 132 112 79 115 136 135 129 111 85 94 71 66 81 91 118 137 135 134 129 121 105 82 106 117 131 130 122 118 118 104 82 83 87 107 115 103 100 89 48 5 0 0 0 0 0 0 0 0 0 0 0 0 0 0 0 0 0 0 0 0 0 0 0 0 0 0 
0 0 0 0 0 0 0 0 0 0 0 0 0 0 0 29 75 56 53 69 112 132 92 78 116 125 131 132 103 95 93 129 126 128 127 127 125 128 88 68 109 137 136 135 135 128 117 120 134 134 124 122 123 130 119 101 82 98 116 135 140 139 135 126 99 94 129 136 133 125 81 105 120 116 111 95 79 105 134 137 136 130 122 113 89 78 123 136 127 119 112 87 72 80 82 71 97 117 109 101 91 35 0 0 0 0 0 0 0 0 0 0 0 0 0 0 0 0 0 0 0 0 0 0 0 0 0 0 
0 0 0 0 0 0 0 0 0 0 0 0 0 0 11 57 66 42 29 54 111 135 100 95 125 132 134 134 93 68 103 134 133 138 132 132 135 134 107 55 79 132 140 141 138 134 130 135 137 125 106 105 127 135 131 117 109 93 77 98 129 135 136 129 114 91 127 136 134 134 100 112 137 118 123 125 104 71 115 131 137 133 126 122 121 86 83 132 116 80 61 69 70 90 98 82 65 105 115 104 112 74 8 0 0 0 0 0 0 0 0 0 0 0 0 0 0 0 0 0 0 0 0 0 0 0 0 0 
0 0 0 0 0 0 0 0 0 0 0 0 0 3 53 77 91 82 77 101 122 125 91 103 123 131 136 135 94 49 101 134 137 136 123 136 139 139 127 73 48 121 137 136 125 135 141 140 138 112 84 117 135 135 137 134 129 124 109 77 92 130 137 132 124 102 121 137 139 137 114 93 103 107 128 128 126 97 80 125 135 136 130 124 121 114 71 88 74 75 96 117 115 106 112 97 67 60 95 106 98 81 34 1 0 0 0 0 0 0 0 0 0 0 0 0 0 0 0 0 0 0 0 0 0 0 0 0 
0 0 0 0 0 0 0 0 0 0 0 0 0 41 91 94 113 123 129 132 130 103 96 119 122 128 137 139 114 76 107 133 138 128 113 134 140 141 131 99 56 97 135 133 103 121 138 141 137 101 84 133 139 134 138 142 141 134 131 104 81 116 136 137 126 101 110 135 141 141 132 101 103 127 133 131 134 128 82 105 135 142 137 131 125 103 61 88 110 119 124 124 125 101 107 112 83 56 71 77 81 76 46 18 5 2 0 0 0 0 0 0 0 0 0 0 0 0 0 0 0 0 0 0 0 0 0 0 
0 0 0 0 0 0 0 0 0 0 0 1 23 89 89 105 117 127 135 134 133 96 101 126 124 126 134 141 126 98 117 130 136 129 96 118 139 141 137 114 92 81 103 118 89 117 138 139 135 96 92 135 140 137 137 134 125 120 126 115 100 90 132 135 122 109 94 128 138 137 142 134 134 138 134 125 128 134 102 90 116 128 133 134 130 84 82 115 119 130 129 123 126 106 76 75 60 38 60 91 100 82 41 43 72 53 12 0 0 0 0 0 0 0 0 0 0 0 0 0 0 0 0 0 0 0 0 0 
0 0 0 0 0 0 0 0 0 0 0 7 63 112 83 111 118 132 137 128 120 86 108 134 132 128 135 137 126 101 123 131 139 134 104 85 130 141 138 124 108 100 89 90 82 123 134 137 132 104 120 136 135 132 130 119 96 119 122 126 116 90 117 136 126 120 99 104 134 132 138 139 134 137 130 119 123 129 106 71 104 125 134 139 119 67 113 125 106 99 133 131 122 118 108 82 49 35 87 121 118 83 33 65 95 77 54 10 0 0 0 0 0 0 0 0 0 0 0 0 0 0 0 0 0 0 0 0 
0 0 0 0 0 0 0 0 0 0 0 42 110 126 84 118 131 132 109 92 85 75 117 134 139 137 133 134 128 94 122 132 137 134 114 78 104 138 142 142 122 112 113 80 61 117 139 131 123 120 129 133 137 134 123 90 106 116 123 134 123 100 93 133 133 133 123 111 129 140 137 135 135 130 118 117 126 124 100 93 128 134 140 129 84 50 112 129 118 81 101 128 126 128 127 117 97 70 84 127 127 103 64 71 95 66 92 47 6 0 0 0 0 0 0 0 0 0 0 0 0 0 0 0 0 0 0 0 
0 0 0 0 0 0 0 0 0 0 8 84 128 113 98 135 137 106 96 115 108 105 134 138 139 136 134 133 135 88 116 137 141 139 121 72 88 131 143 141 132 122 132 119 72 104 138 132 121 126 135 136 137 131 117 86 112 117 134 138 133 112 93 125 127 135 133 125 118 134 134 120 99 102 114 128 130 114 83 110 134 137 118 92 75 53 93 130 126 113 87 107 125 135 129 123 119 100 67 102 132 119 117 106 88 70 117 94 35 1 0 0 0 0 0 0 0 0 0 0 0 0 0 0 0 0 0 0 
0 0 0 0 0 0 0 0 0 1 29 102 132 90 119 137 108 95 113 128 121 114 119 127 130 132 135 133 134 89 108 141 145 140 137 92 65 108 142 142 139 136 141 134 91 84 130 139 128 127 134 135 136 135 115 79 115 133 140 140 138 111 86 114 129 137 137 131 111 132 133 122 101 111 129 136 126 107 78 98 107 92 79 100 123 96 74 130 131 126 117 105 101 115 129 134 128 118 82 69 101 107 112 102 63 89 119 112 58 2 0 0 0 0 0 0 0 0 0 0 0 0 0 0 0 0 0 0 
0 0 0 0 0 0 0 0 0 8 61 116 133 89 128 113 89 116 121 128 125 109 90 88 97 88 93 88 91 77 76 126 139 140 144 121 60 83 140 129 131 139 140 136 95 65 118 142 132 130 128 136 134 131 114 94 120 133 137 136 139 102 72 122 137 136 131 125 103 130 139 138 136 135 135 135 129 113 87 93 119 105 116 131 131 114 80 127 131 126 128 121 109 89 82 121 132 126 101 74 51 61 59 46 45 82 100 94 52 3 0 0 0 0 0 0 0 0 0 0 0 0 0 0 0 0 0 0 
0 0 0 0 0 0 0 0 0 24 82 121 133 92 119 97 108 122 121 129 132 137 132 118 111 113 109 110 116 100 69 76 122 136 143 136 83 59 130 138 133 136 139 137 107 61 114 143 140 132 132 136 137 124 111 93 117 129 137 137 136 104 91 134 139 140 129 118 94 113 138 141 139 137 136 137 132 123 100 84 125 134 136 135 133 122 107 129 134 129 129 127 122 119 87 81 129 132 125 92 63 94 92 80 61 63 106 109 52 6 0 0 0 0 0 0 0 0 0 0 0 0 0 0 0 0 0 0 
0 0 0 0 0 0 0 0 8 54 91 126 138 99 91 92 109 119 122 130 131 139 141 142 143 141 142 136 138 135 113 80 100 130 137 136 102 44 120 147 144 145 137 115 57 54 118 144 143 134 133 133 136 134 117 84 90 125 141 138 133 113 97 127 139 144 140 132 110 91 116 138 140 133 132 141 138 130 116 88 112 136 136 134 136 134 128 129 134 134 130 126 128 133 116 85 117 134 127 76 73 111 101 90 104 86 76 115 82 20 0 0 0 0 0 0 0 0 0 0 0 0 0 0 0 0 0 0 
0 0 0 0 0 0 0 0 26 75 99 129 139 129 72 93 124 128 128 128 134 138 139 142 142 142 143 141 142 140 136 135 134 132 132 138 114 61 123 148 147 145 127 80 53 96 120 132 134 133 135 137 139 141 133 104 68 117 137 140 137 127 117 109 130 141 144 142 133 105 89 133 145 140 129 137 144 135 118 95 100 134 140 135 137 141 135 131 130 132 130 117 128 132 118 103 100 134 116 52 85 111 85 69 120 114 97 93 109 57 2 0 0 0 0 0 0 0 0 0 0 0 0 0 0 0 0 0 
0 0 0 0 0 0 0 0 51 88 110 120 107 87 61 95 115 113 115 128 136 141 142 142 144 147 142 143 143 139 141 143 141 143 141 129 93 70 131 149 149 140 120 45 67 121 129 132 130 131 130 132 139 144 144 113 62 119 135 143 144 142 135 110 121 137 139 139 136 112 79 129 139 136 134 135 135 129 115 92 65 114 130 129 130 127 115 116 129 129 114 99 126 133 119 112 89 115 114 88 115 123 92 73 122 128 127 94 93 78 16 0 0 0 0 0 0 0 0 0 0 0 0 0 0 0 0 0 
0 0 0 0 0 0 0 0 62 88 120 117 97 80 85 105 114 120 98 105 113 113 112 114 103 99 104 114 118 134 140 141 144 146 142 128 62 84 134 132 134 130 88 46 100 135 136 129 117 111 116 125 133 137 141 111 70 119 136 145 147 145 138 124 128 136 139 138 138 110 69 125 141 136 132 134 134 126 122 100 45 81 111 107 72 47 40 53 75 76 84 109 133 130 119 110 90 88 121 126 129 120 87 70 111 127 128 124 103 81 35 15 0 0 0 0 0 0 0 0 0 0 0 0 0 0 0 0 
0 0 0 0 0 0 0 5 76 72 101 91 103 119 105 116 122 126 115 102 94 70 47 54 42 55 74 82 60 112 137 141 144 146 142 119 50 104 139 132 121 88 47 77 130 134 133 137 133 129 123 125 133 133 132 92 76 120 131 143 144 139 131 127 132 136 137 136 139 112 84 129 141 138 135 136 137 137 132 116 70 81 83 74 51 62 76 69 59 67 99 126 134 132 126 114 107 93 106 138 133 119 93 72 82 90 119 133 128 84 42 30 4 0 0 0 0 0 0 0 0 0 0 0 0 0 0 0 
0 0 0 0 0 0 0 19 63 56 87 117 133 137 114 112 126 130 130 128 124 120 113 115 120 132 129 103 82 125 137 141 147 148 141 107 48 121 144 136 122 85 81 113 136 144 141 136 137 138 138 134 132 133 115 72 96 125 133 139 132 130 124 128 134 140 140 140 142 107 112 134 137 137 134 129 136 135 137 119 104 123 97 97 119 131 133 130 126 99 77 106 134 133 131 122 116 107 89 130 135 125 118 94 92 80 91 138 125 74 99 84 30 0 0 0 0 0 0 0 0 0 0 0 0 0 0 0 
0 0 0 0 0 0 3 45 60 71 106 129 134 137 132 107 123 128 130 135 136 134 138 143 144 140 128 86 117 137 139 141 148 144 134 70 52 122 148 144 128 82 90 112 137 141 143 140 140 144 146 144 139 125 86 77 117 130 129 125 123 130 126 122 131 138 137 138 140 108 129 136 140 138 137 125 126 129 132 114 123 129 127 138 137 136 138 129 132 130 108 87 123 136 133 125 123 111 79 100 127 127 117 86 79 88 71 115 86 81 114 102 51 1 0 0 0 0 0 0 0 0 0 0 0 0 0 0 
0 0 0 0 0 0 12 65 76 99 120 131 126 127 130 102 105 128 135 137 138 140 137 143 144 143 114 76 124 136 143 144 140 121 103 47 67 119 132 138 135 113 94 99 125 139 140 141 142 143 143 141 122 83 62 109 132 135 131 133 137 135 132 135 139 140 131 130 125 103 133 140 141 139 138 130 122 114 111 114 127 123 134 140 138 135 123 110 127 137 130 105 104 126 119 122 134 130 113 76 121 116 89 87 113 118 77 100 105 106 110 92 30 0 0 0 0 0 0 0 0 0 0 0 0 0 0 0 
0 0 0 0 0 0 23 84 84 109 126 137 136 132 121 97 70 92 122 135 136 131 106 132 143 143 105 66 121 136 143 138 109 84 113 118 113 118 125 130 142 137 124 111 108 126 136 140 141 139 133 97 70 51 49 106 134 135 135 138 139 136 138 139 141 141 133 128 118 109 136 143 138 137 134 123 104 79 104 136 124 123 138 133 133 128 92 99 128 134 131 108 86 111 121 134 135 133 130 78 78 71 91 121 123 120 79 118 135 131 121 91 23 0 0 0 0 0 0 0 0 0 0 0 0 0 0 0 
0 0 0 0 0 3 57 107 98 116 111 128 139 138 134 122 90 52 67 106 119 100 68 127 142 140 114 77 119 126 135 119 68 92 129 135 132 120 123 123 129 129 127 118 102 121 134 136 135 138 126 85 114 86 24 56 120 133 132 139 139 134 135 134 135 138 136 131 130 125 140 143 136 136 132 112 68 81 132 135 119 122 137 133 133 95 73 115 134 137 131 108 70 111 132 139 133 131 114 62 50 100 128 130 125 106 70 109 119 119 120 105 40 0 0 0 0 0 0 0 0 0 0 0 0 0 0 0 
0 0 0 0 0 20 89 111 111 124 104 120 133 134 139 130 130 114 93 92 117 114 111 141 142 138 119 92 123 138 129 93 80 119 134 139 142 136 128 132 132 127 114 94 89 129 142 142 137 131 125 101 115 115 79 54 77 112 116 127 133 131 132 134 135 142 138 135 129 130 142 143 134 130 120 90 76 104 133 131 116 122 137 139 128 64 81 131 136 136 131 96 80 130 137 130 119 101 64 55 102 132 133 132 132 115 86 67 56 85 118 120 53 0 0 0 0 0 0 0 0 0 0 0 0 0 0 0 
0 0 0 0 2 41 108 108 119 115 113 133 124 129 130 135 140 140 138 132 135 128 128 140 139 131 119 98 127 139 119 90 111 132 136 137 143 138 139 134 135 136 127 112 105 124 140 137 134 131 131 129 128 130 125 100 51 44 55 75 108 131 131 135 136 138 138 131 121 134 143 141 128 117 110 119 119 123 134 132 114 122 134 136 107 51 109 135 136 137 131 89 114 137 134 122 107 110 91 109 132 132 130 131 135 132 126 117 80 60 99 122 66 2 0 0 0 0 0 0 0 0 0 0 0 0 0 0 
0 0 0 0 21 69 115 110 126 108 128 130 126 128 129 133 138 138 140 140 141 138 135 138 133 125 119 97 125 135 118 117 129 135 134 136 143 141 144 144 144 142 135 134 131 122 137 142 143 143 141 143 139 134 136 132 93 58 51 39 47 72 104 127 136 139 136 130 121 137 141 136 106 98 129 140 124 118 136 134 114 128 135 127 80 80 130 141 139 139 106 85 129 136 129 106 124 133 131 132 133 135 126 122 130 127 131 126 86 75 63 115 84 11 0 0 0 0 0 0 0 0 0 0 0 0 0 0 
0 0 0 1 38 83 120 117 127 110 132 108 121 134 136 138 138 137 140 141 140 141 137 132 131 133 134 101 105 131 133 137 137 128 122 140 139 131 136 139 142 140 139 140 131 94 104 136 142 141 140 138 141 140 141 142 122 78 104 106 99 69 49 69 109 133 131 132 128 135 132 110 102 128 133 134 129 116 136 137 107 128 124 83 70 115 139 140 138 136 107 116 136 132 113 101 132 141 135 130 128 126 111 116 129 133 135 99 84 97 55 106 103 16 0 0 0 0 0 0 0 0 0 0 0 0 0 0 
0 0 0 3 53 97 123 120 126 122 138 118 95 98 125 137 136 138 138 138 134 130 127 130 137 137 138 118 95 133 144 142 137 126 121 135 135 123 125 135 138 140 139 138 121 72 48 77 117 135 141 137 139 140 143 145 137 110 124 133 134 130 108 72 48 81 124 133 127 120 103 91 112 131 134 141 138 127 128 131 101 114 67 34 105 135 135 136 137 136 133 134 135 130 107 119 133 136 133 126 114 110 122 125 132 134 116 89 105 78 59 116 99 15 0 0 0 0 0 0 0 0 0 0 0 0 0 0 
0 0 0 8 74 99 131 115 113 131 137 137 116 76 92 93 124 128 124 133 133 132 136 142 144 142 141 140 122 115 125 135 133 122 124 129 119 108 117 134 138 138 138 139 125 81 63 62 102 125 137 141 144 143 144 144 140 130 135 139 139 136 135 132 102 60 61 80 83 70 52 57 75 104 128 137 136 134 132 116 91 96 47 76 136 143 141 142 136 139 140 137 127 106 112 136 139 132 119 99 105 124 135 134 133 129 110 112 100 62 75 108 64 4 0 0 0 0 0 0 0 0 0 0 0 0 0 0 
0 0 0 10 82 90 138 131 107 123 136 141 109 112 124 96 104 131 134 141 143 143 142 140 137 136 140 138 132 107 79 104 128 131 125 104 115 129 139 142 146 142 145 146 142 134 127 125 128 114 106 138 144 141 142 140 139 136 139 140 144 137 131 136 135 125 104 89 87 81 77 60 58 79 108 122 128 132 127 91 104 76 61 118 140 140 138 136 128 129 133 121 99 89 122 138 136 126 93 112 131 134 137 132 127 126 121 118 101 62 64 75 21 0 0 0 0 0 0 0 0 0 0 0 0 0 0 0 
0 0 0 4 65 89 131 129 111 109 132 138 108 128 137 123 132 139 143 143 139 136 133 135 135 134 135 142 134 130 92 66 111 131 116 119 136 142 148 144 146 145 144 149 145 142 138 133 135 118 90 129 138 136 139 140 141 135 136 138 142 140 125 134 143 143 140 138 134 136 134 101 50 45 63 84 93 105 94 81 86 77 89 132 125 121 110 104 108 111 111 114 109 122 130 133 132 122 99 131 135 132 126 116 116 114 105 101 77 59 60 32 1 0 0 0 0 0 0 0 0 0 0 0 0 0 0 0 
0 0 0 0 31 73 117 122 130 114 122 133 107 132 141 134 138 141 142 138 136 135 138 139 138 139 142 141 131 121 112 86 113 134 140 144 147 146 145 143 137 137 142 146 146 142 137 128 112 109 108 124 136 136 140 140 143 139 133 136 143 141 134 134 144 143 142 138 130 137 142 129 99 74 58 44 50 62 67 76 98 98 106 130 118 111 94 102 121 128 134 136 134 138 137 135 128 107 124 137 129 110 89 89 84 86 96 95 49 57 33 1 0 0 0 0 0 0 0 0 0 0 0 0 0 0 0 0 
0 0 0 0 11 61 106 136 139 121 115 133 114 127 132 129 131 129 139 138 139 142 145 143 141 144 146 142 121 123 119 106 138 145 145 146 146 147 136 130 133 139 141 141 138 132 132 125 121 105 76 98 130 123 131 141 144 143 139 141 144 141 140 119 126 137 129 125 132 139 140 138 138 124 109 87 46 56 108 117 121 69 90 122 132 138 130 130 134 130 133 137 134 136 134 123 106 119 139 134 95 60 64 72 97 110 115 80 48 76 28 0 0 0 0 0 0 0 0 0 0 0 0 0 0 0 0 0 
0 0 0 0 5 58 81 131 136 125 113 136 118 114 127 132 134 131 142 142 144 144 141 138 142 140 140 131 107 126 122 125 146 145 145 144 146 143 122 130 137 139 137 126 110 110 127 139 144 140 112 117 134 122 126 141 144 144 147 142 144 143 136 85 77 89 105 122 131 136 139 137 134 127 129 127 80 44 64 112 92 39 52 92 113 133 132 135 136 129 132 124 128 131 134 121 122 134 129 101 79 87 75 88 92 92 88 60 70 84 28 0 0 0 0 0 0 0 0 0 0 0 0 0 0 0 0 0 
0 0 0 0 5 59 59 101 132 123 124 137 122 93 123 141 140 139 138 137 137 122 100 116 138 137 138 128 122 132 116 133 139 135 131 127 134 133 120 120 120 117 105 90 106 130 141 144 147 148 143 140 145 138 133 135 134 139 140 138 139 133 113 68 75 69 89 115 117 122 132 135 130 118 126 133 121 92 45 48 45 44 74 101 113 132 130 134 132 128 125 125 130 133 137 133 128 114 83 93 128 131 107 96 94 95 88 93 109 96 23 0 0 0 0 0 0 0 0 0 0 0 0 0 0 0 0 0 
0 0 0 0 7 70 56 72 116 125 134 137 127 97 106 139 125 122 123 124 132 116 85 112 141 144 143 140 141 130 123 128 134 134 119 106 110 115 93 55 61 93 111 126 136 145 144 141 143 144 144 145 148 142 138 133 118 117 128 128 124 116 106 87 99 102 88 115 129 127 123 128 120 110 123 128 123 122 101 58 30 70 98 102 100 107 125 135 128 135 134 133 130 133 129 121 100 76 96 131 134 128 127 128 123 119 119 128 122 74 5 0 0 0 0 0 0 0 0 0 0 0 0 0 0 0 0 0 
0 0 0 0 1 57 67 52 87 117 131 138 134 109 80 123 119 123 134 145 145 143 123 127 138 132 142 144 145 141 127 121 128 131 138 141 137 122 93 71 98 113 129 142 144 144 144 145 145 144 147 149 146 140 145 145 139 129 130 130 131 128 126 125 126 116 114 93 119 127 117 123 128 106 101 123 124 115 107 78 34 61 119 116 80 90 111 133 133 130 131 136 122 104 86 78 73 101 123 121 119 115 120 128 129 124 115 106 62 10 0 0 0 0 0 0 0 0 0 0 0 0 0 0 0 0 0 0 
0 0 0 0 0 24 58 46 53 79 122 136 132 98 62 81 112 119 131 143 147 144 133 127 120 105 125 141 140 131 103 101 131 141 148 149 146 135 120 109 131 135 139 139 146 143 144 145 146 143 143 143 143 145 147 148 149 148 143 144 143 142 140 135 127 122 124 102 111 127 123 121 124 93 102 119 110 124 117 96 57 39 68 102 98 100 93 109 121 118 116 101 84 79 89 107 109 116 114 125 136 134 134 130 120 101 70 28 2 0 0 0 0 0 0 0 0 0 0 0 0 0 0 0 0 0 0 0 
0 0 0 0 0 3 48 68 53 35 65 102 111 92 77 71 83 103 105 122 138 143 125 104 100 86 104 123 125 120 112 123 139 144 148 147 144 135 122 126 142 142 137 137 143 144 143 144 144 144 142 143 146 147 148 144 148 148 144 146 144 145 145 132 120 127 130 124 122 123 126 110 111 92 91 95 105 122 118 103 84 46 35 41 57 80 39 40 58 74 83 96 116 118 112 108 111 119 129 132 126 116 97 68 46 26 5 0 0 0 0 0 0 0 0 0 0 0 0 0 0 0 0 0 0 0 0 0 
0 0 0 0 0 0 26 85 67 37 21 32 40 42 62 95 97 72 88 117 107 106 113 94 78 70 85 104 88 110 133 140 147 143 145 146 142 127 117 138 147 146 142 140 142 141 138 136 141 138 137 141 143 145 147 147 144 143 145 145 144 144 139 116 122 136 137 138 134 127 123 120 99 107 110 110 114 119 121 119 110 86 42 20 15 27 45 76 81 87 95 106 109 111 109 98 84 75 75 54 32 21 9 4 1 0 0 0 0 0 0 0 0 0 0 0 0 0 0 0 0 0 0 0 0 0 0 0 
0 0 0 0 0 0 9 74 86 55 26 12 11 11 30 71 93 84 65 99 77 59 55 57 44 36 55 68 55 92 132 143 144 145 148 144 134 123 136 146 144 144 144 132 111 108 115 123 131 131 122 125 131 133 137 139 138 140 140 136 139 136 111 88 117 138 140 129 131 132 131 123 89 101 116 114 126 127 133 136 130 122 86 30 13 6 9 50 96 101 77 66 67 63 37 18 8 5 4 1 0 0 0 0 0 0 0 0 0 0 0 0 0 0 0 0 0 0 0 0 0 0 0 0 0 0 0 0 
0 0 0 0 0 0 0 33 84 73 42 12 5 8 17 33 52 57 39 50 50 51 43 33 23 35 36 51 64 91 128 141 139 145 147 143 134 126 143 146 144 143 139 121 114 129 138 141 144 144 140 128 135 135 124 113 120 125 125 129 132 117 98 87 123 130 122 124 132 138 137 128 109 86 103 111 108 135 137 133 129 131 130 84 29 1 0 0 14 43 58 19 6 1 0 0 0 0 0 0 0 0 0 0 0 0 0 0 0 0 0 0 0 0 0 0 0 0 0 0 0 0 0 0 0 0 0 0 
0 0 0 0 0 0 0 2 48 84 62 24 22 28 33 35 37 53 52 39 35 54 56 66 55 57 70 48 38 55 100 120 122 140 144 143 140 126 138 145 144 141 138 138 141 146 147 145 139 134 136 136 134 135 124 114 118 98 93 111 118 123 122 114 136 129 128 133 127 126 136 137 135 120 84 93 95 122 135 117 117 123 133 123 88 40 3 0 0 0 8 0 0 0 0 0 0 0 0 0 0 0 0 0 0 0 0 0 0 0 0 0 0 0 0 0 0 0 0 0 0 0 0 0 0 0 0 0 
0 0 0 0 0 0 0 0 4 42 64 38 31 45 59 78 84 90 78 84 68 51 33 64 97 103 98 70 48 50 63 80 83 118 138 144 143 132 136 146 145 145 143 143 142 142 143 140 126 121 103 121 126 131 132 137 139 134 125 124 126 129 132 131 138 138 138 129 122 130 139 141 145 135 121 85 84 111 137 109 115 126 126 123 115 72 15 0 0 0 0 0 0 0 0 0 0 0 0 0 0 0 0 0 0 0 0 0 0 0 0 0 0 0 0 0 0 0 0 0 0 0 0 0 0 0 0 0 
0 0 0 0 0 0 0 0 0 1 22 21 14 49 72 82 101 94 90 88 91 64 45 65 81 95 111 104 93 92 77 63 66 93 125 138 143 143 140 143 144 138 129 117 105 93 110 124 113 90 69 102 129 139 140 140 139 138 136 119 93 110 126 138 138 133 131 134 140 145 146 141 141 140 138 120 80 102 132 127 128 131 121 124 111 66 14 0 0 0 0 0 0 0 0 0 0 0 0 0 0 0 0 0 0 0 0 0 0 0 0 0 0 0 0 0 0 0 0 0 0 0 0 0 0 0 0 0 
0 0 0 0 0 0 0 0 0 0 0 2 7 46 66 85 107 118 94 78 97 87 84 76 69 85 110 114 97 67 74 71 49 44 72 100 125 135 133 128 127 115 87 63 59 57 75 90 96 85 89 109 135 146 142 141 142 140 136 123 112 126 130 137 137 137 141 143 145 146 140 131 133 141 140 131 92 93 127 135 133 131 125 120 108 69 5 0 0 0 0 0 0 0 0 0 0 0 0 0 0 0 0 0 0 0 0 0 0 0 0 0 0 0 0 0 0 0 0 0 0 0 0 0 0 0 0 0 
0 0 0 0 0 0 0 0 0 0 0 0 7 65 95 106 114 119 107 103 117 122 127 115 104 98 100 113 114 85 79 80 61 57 56 67 82 77 83 93 103 106 107 92 64 62 57 68 73 75 78 101 121 132 140 141 140 143 139 138 125 121 130 136 145 143 139 140 141 142 145 139 129 137 141 138 109 83 121 132 130 124 118 111 98 54 1 0 0 0 0 0 0 0 0 0 0 0 0 0 0 0 0 0 0 0 0 0 0 0 0 0 0 0 0 0 0 0 0 0 0 0 0 0 0 0 0 0 
0 0 0 0 0 0 0 0 0 0 0 0 2 25 54 93 114 127 121 131 131 130 140 136 131 125 103 95 118 126 127 120 101 86 82 89 86 81 77 80 75 61 61 62 54 58 71 83 83 70 57 61 70 99 127 142 145 146 142 143 136 121 108 97 121 132 128 138 142 144 146 142 135 130 138 135 114 79 117 131 127 105 110 103 59 14 0 0 0 0 0 0 0 0 0 0 0 0 0 0 0 0 0 0 0 0 0 0 0 0 0 0 0 0 0 0 0 0 0 0 0 0 0 0 0 0 0 0 
0 0 0 0 0 0 0 0 0 0 0 0 1 42 68 89 123 128 121 135 133 127 133 130 137 137 134 120 101 118 131 132 127 122 115 98 86 84 106 118 104 69 59 69 59 80 111 107 95 73 62 54 80 70 77 113 135 145 147 144 140 130 91 71 110 126 116 124 139 142 141 144 134 130 139 134 124 79 119 131 126 95 88 61 9 0 0 0 0 0 0 0 0 0 0 0 0 0 0 0 0 0 0 0 0 0 0 0 0 0 0 0 0 0 0 0 0 0 0 0 0 0 0 0 0 0 0 0 
0 0 0 0 0 0 0 0 0 0 0 0 0 56 115 76 74 106 121 135 132 131 136 140 140 141 140 136 111 105 116 126 121 124 127 124 105 94 86 103 107 91 72 80 92 78 106 131 124 94 73 60 133 123 72 72 90 132 144 145 144 141 132 125 133 138 138 132 129 136 144 143 141 144 138 133 129 85 121 133 125 95 68 27 0 0 0 0 0 0 0 0 0 0 0 0 0 0 0 0 0 0 0 0 0 0 0 0 0 0 0 0 0 0 0 0 0 0 0 0 0 0 0 0 0 0 0 0 
0 0 0 0 0 0 0 0 0 0 0 0 0 27 111 122 100 81 98 120 125 126 132 137 136 139 141 140 135 127 112 114 116 118 118 126 111 101 98 97 94 99 105 94 82 88 95 117 126 102 78 105 143 142 114 86 80 84 120 138 142 144 141 137 138 142 140 138 133 128 124 133 144 143 135 127 125 109 127 138 126 88 58 9 0 0 0 0 0 0 0 0 0 0 0 0 0 0 0 0 0 0 0 0 0 0 0 0 0 0 0 0 0 0 0 0 0 0 0 0 0 0 0 0 0 0 0 0 
0 0 0 0 0 0 0 0 0 0 0 0 0 3 75 126 131 119 83 84 117 120 121 132 131 137 139 141 143 140 134 124 123 117 104 111 108 90 93 117 115 101 103 109 93 68 65 101 116 79 79 132 138 136 135 110 82 84 90 128 136 140 133 135 138 142 138 137 139 132 101 82 126 131 130 127 132 118 132 138 109 66 33 0 0 0 0 0 0 0 0 0 0 0 0 0 0 0 0 0 0 0 0 0 0 0 0 0 0 0 0 0 0 0 0 0 0 0 0 0 0 0 0 0 0 0 0 0 
0 0 0 0 0 0 0 0 0 0 0 0 0 0 25 105 129 132 123 82 98 102 122 140 141 141 143 145 142 137 136 127 118 116 107 104 108 98 94 106 121 123 109 98 94 53 52 75 78 75 74 123 130 133 134 134 91 69 75 105 133 140 140 139 137 137 137 137 138 132 99 75 107 123 126 133 135 128 127 101 71 42 3 0 0 0 0 0 0 0 0 0 0 0 0 0 0 0 0 0 0 0 0 0 0 0 0 0 0 0 0 0 0 0 0 0 0 0 0 0 0 0 0 0 0 0 0 0 
0 0 0 0 0 0 0 0 0 0 0 0 0 0 1 58 122 126 128 117 97 72 73 97 111 130 142 142 144 141 142 136 119 114 125 117 113 108 111 108 117 116 110 101 63 51 62 71 102 125 82 95 139 141 141 143 134 95 65 81 121 134 137 138 131 129 133 138 139 133 92 66 102 125 132 127 121 109 94 88 51 5 0 0 0 0 0 0 0 0 0 0 0 0 0 0 0 0 0 0 0 0 0 0 0 0 0 0 0 0 0 0 0 0 0 0 0 0 0 0 0 0 0 0 0 0 0 0 
0 0 0 0 0 0 0 0 0 0 0 0 0 0 0 12 99 127 127 128 133 124 114 99 79 99 125 132 136 131 131 138 132 123 133 121 118 107 105 115 121 118 114 104 61 88 91 65 114 116 69 100 139 141 141 139 119 55 21 53 99 128 135 138 139 140 139 132 130 127 93 81 87 90 96 86 89 99 106 65 5 0 0 0 0 0 0 0 0 0 0 0 0 0 0 0 0 0 0 0 0 0 0 0 0 0 0 0 0 0 0 0 0 0 0 0 0 0 0 0 0 0 0 0 0 0 0 0 
0 0 0 0 0 0 0 0 0 0 0 0 0 0 0 0 40 106 123 131 135 136 135 136 128 128 125 111 113 111 114 127 134 130 130 128 114 108 102 106 115 113 100 87 85 108 93 74 97 76 85 119 132 131 120 92 34 1 0 9 42 85 109 129 138 140 140 138 133 119 90 108 136 119 116 118 115 92 47 6 0 0 0 0 0 0 0 0 0 0 0 0 0 0 0 0 0 0 0 0 0 0 0 0 0 0 0 0 0 0 0 0 0 0 0 0 0 0 0 0 0 0 0 0 0 0 0 0 
0 0 0 0 0 0 0 0 0 0 0 0 0 0 0 0 3 43 105 131 135 137 137 139 139 140 139 127 114 113 120 104 90 91 96 113 100 110 102 97 84 79 82 95 117 103 96 86 60 80 115 70 61 62 29 5 0 0 0 0 1 14 38 85 123 131 129 126 105 85 94 129 133 114 95 76 45 13 1 0 0 0 0 0 0 0 0 0 0 0 0 0 0 0 0 0 0 0 0 0 0 0 0 0 0 0 0 0 0 0 0 0 0 0 0 0 0 0 0 0 0 0 0 0 0 0 0 0 
0 0 0 0 0 0 0 0 0 0 0 0 0 0 0 0 0 8 72 118 130 134 136 138 135 139 141 140 140 143 141 130 114 98 92 89 96 88 91 96 77 72 87 106 105 90 108 88 73 130 112 16 0 0 0 0 0 0 0 0 0 0 0 17 63 88 86 74 69 86 99 76 45 21 11 3 0 0 0 0 0 0 0 0 0 0 0 0 0 0 0 0 0 0 0 0 0 0 0 0 0 0 0 0 0 0 0 0 0 0 0 0 0 0 0 0 0 0 0 0 0 0 0 0 0 0 0 0 
0 0 0 0 0 0 0 0 0 0 0 0 0 0 0 0 0 0 38 99 120 121 125 137 138 141 138 139 141 143 144 141 141 139 132 97 85 84 93 97 80 96 113 107 81 103 94 78 116 140 89 3 0 0 0 0 0 0 0 0 0 0 0 0 10 23 33 38 35 26 11 1 0 0 0 0 0 0 0 0 0 0 0 0 0 0 0 0 0 0 0 0 0 0 0 0 0 0 0 0 0 0 0 0 0 0 0 0 0 0 0 0 0 0 0 0 0 0 0 0 0 0 0 0 0 0 0 0 
0 0 0 0 0 0 0 0 0 0 0 0 0 0 0 0 0 0 0 34 110 126 125 137 136 140 139 138 138 138 142 140 140 141 142 120 95 89 75 82 83 92 118 101 89 98 81 61 137 136 62 0 0 0 0 0 0 0 0 0 0 0 0 0 0 0 0 0 0 0 0 0 0 0 0 0 0 0 0 0 0 0 0 0 0 0 0 0 0 0 0 0 0 0 0 0 0 0 0 0 0 0 0 0 0 0 0 0 0 0 0 0 0 0 0 0 0 0 0 0 0 0 0 0 0 0 0 0 
0 0 0 0 0 0 0 0 0 0 0 0 0 0 0 0 0 0 0 0 40 105 128 130 134 137 138 140 137 136 134 133 134 136 132 116 94 105 73 67 77 83 92 82 121 94 75 80 138 120 24 0 0 0 0 0 0 0 0 0 0 0 0 0 0 0 0 0 0 0 0 0 0 0 0 0 0 0 0 0 0 0 0 0 0 0 0 0 0 0 0 0 0 0 0 0 0 0 0 0 0 0 0 0 0 0 0 0 0 0 0 0 0 0 0 0 0 0 0 0 0 0 0 0 0 0 0 0 
0 0 0 0 0 0 0 0 0 0 0 0 0 0 0 0 0 0 0 0 1 36 93 116 117 130 137 140 139 138 138 137 134 132 130 112 105 111 103 78 71 63 69 119 129 71 48 109 135 82 3 0 0 0 0 0 0 0 0 0 0 0 0 0 0 0 0 0 0 0 0 0 0 0 0 0 0 0 0 0 0 0 0 0 0 0 0 0 0 0 0 0 0 0 0 0 0 0 0 0 0 0 0 0 0 0 0 0 0 0 0 0 0 0 0 0 0 0 0 0 0 0 0 0 0 0 0 0 
0 0 0 0 0 0 0 0 0 0 0 0 0 0 0 0 0 0 0 0 0 2 36 82 94 100 123 133 139 134 133 135 133 131 120 101 107 118 114 95 74 55 54 102 96 46 99 135 125 34 0 0 0 0 0 0 0 0 0 0 0 0 0 0 0 0 0 0 0 0 0 0 0 0 0 0 0 0 0 0 0 0 0 0 0 0 0 0 0 0 0 0 0 0 0 0 0 0 0 0 0 0 0 0 0 0 0 0 0 0 0 0 0 0 0 0 0 0 0 0 0 0 0 0 0 0 0 0 
0 0 0 0 0 0 0 0 0 0 0 0 0 0 0 0 0 0 0 0 0 0 1 36 96 122 125 128 137 134 125 123 129 126 125 121 124 123 110 112 102 82 63 53 60 91 139 132 73 1 0 0 0 0 0 0 0 0 0 0 0 0 0 0 0 0 0 0 0 0 0 0 0 0 0 0 0 0 0 0 0 0 0 0 0 0 0 0 0 0 0 0 0 0 0 0 0 0 0 0 0 0 0 0 0 0 0 0 0 0 0 0 0 0 0 0 0 0 0 0 0 0 0 0 0 0 0 0 
0 0 0 0 0 0 0 0 0 0 0 0 0 0 0 0 0 0 0 0 0 0 0 0 13 53 81 105 129 138 136 132 135 135 131 118 96 86 73 74 71 62 39 45 108 137 138 103 13 0 0 0 0 0 0 0 0 0 0 0 0 0 0 0 0 0 0 0 0 0 0 0 0 0 0 0 0 0 0 0 0 0 0 0 0 0 0 0 0 0 0 0 0 0 0 0 0 0 0 0 0 0 0 0 0 0 0 0 0 0 0 0 0 0 0 0 0 0 0 0 0 0 0 0 0 0 0 0 
0 0 0 0 0 0 0 0 0 0 0 0 0 0 0 0 0 0 0 0 0 0 0 0 0 0 6 20 51 89 100 102 100 101 88 58 39 53 72 74 63 44 69 121 142 137 128 51 0 0 0 0 0 0 0 0 0 0 0 0 0 0 0 0 0 0 0 0 0 0 0 0 0 0 0 0 0 0 0 0 0 0 0 0 0 0 0 0 0 0 0 0 0 0 0 0 0 0 0 0 0 0 0 0 0 0 0 0 0 0 0 0 0 0 0 0 0 0 0 0 0 0 0 0 0 0 0 0 
0 0 0 0 0 0 0 0 0 0 0 0 0 0 0 0 0 0 0 0 0 0 0 0 0 0 0 0 0 5 10 11 8 9 5 0 2 12 25 65 96 117 141 146 141 138 96 10 0 0 0 0 0 0 0 0 0 0 0 0 0 0 0 0 0 0 0 0 0 0 0 0 0 0 0 0 0 0 0 0 0 0 0 0 0 0 0 0 0 0 0 0 0 0 0 0 0 0 0 0 0 0 0 0 0 0 0 0 0 0 0 0 0 0 0 0 0 0 0 0 0 0 0 0 0 0 0 0 
0 0 0 0 0 0 0 0 0 0 0 0 0 0 0 0 0 0 0 0 0 0 0 0 0 0 0 0 0 0 0 0 0 0 0 0 0 0 5 89 138 142 148 140 131 117 44 0 0 0 0 0 0 0 0 0 0 0 0 0 0 0 0 0 0 0 0 0 0 0 0 0 0 0 0 0 0 0 0 0 0 0 0 0 0 0 0 0 0 0 0 0 0 0 0 0 0 0 0 0 0 0 0 0 0 0 0 0 0 0 0 0 0 0 0 0 0 0 0 0 0 0 0 0 0 0 0 0 
0 0 0 0 0 0 0 0 0 0 0 0 0 0 0 0 0 0 0 0 0 0 0 0 0 0 0 0 0 0 0 0 0 0 0 0 0 0 4 88 132 144 142 112 115 80 7 0 0 0 0 0 0 0 0 0 0 0 0 0 0 0 0 0 0 0 0 0 0 0 0 0 0 0 0 0 0 0 0 0 0 0 0 0 0 0 0 0 0 0 0 0 0 0 0 0 0 0 0 0 0 0 0 0 0 0 0 0 0 0 0 0 0 0 0 0 0 0 0 0 0 0 0 0 0 0 0 0 
0 0 0 0 0 0 0 0 0 0 0 0 0 0 0 0 0 0 0 0 0 0 0 0 0 0 0 0 0 0 0 0 0 0 0 0 0 0 1 33 48 65 53 24 27 12 0 0 0 0 0 0 0 0 0 0 0 0 0 0 0 0 0 0 0 0 0 0 0 0 0 0 0 0 0 0 0 0 0 0 0 0 0 0 0 0 0 0 0 0 0 0 0 0 0 0 0 0 0 0 0 0 0 0 0 0 0 0 0 0 0 0 0 0 0 0 0 0 0 0 0 0 0 0 0 0 0 0 
0 0 0 0 0 0 0 0 0 0 0 0 0 0 0 0 0 0 0 0 0 0 0 0 0 0 0 0 0 0 0 0 0 0 0 0 0 0 0 0 0 0 0 0 0 0 0 0 0 0 0 0 0 0 0 0 0 0 0 0 0 0 0 0 0 0 0 0 0 0 0 0 0 0 0 0 0 0 0 0 0 0 0 0 0 0 0 0 0 0 0 0 0 0 0 0 0 0 0 0 0 0 0 0 0 0 0 0 0 0 0 0 0 0 0 0 0 0 0 0 0 0 0 0 0 0 0 0 
0 0 0 0 0 0 0 0 0 0 0 0 0 0 0 0 0 0 0 0 0 0 0 0 0 0 0 0 0 0 0 0 0 0 0 0 0 0 0 0 0 0 0 0 0 0 0 0 0 0 0 0 0 0 0 0 0 0 0 0 0 0 0 0 0 0 0 0 0 0 0 0 0 0 0 0 0 0 0 0 0 0 0 0 0 0 0 0 0 0 0 0 0 0 0 0 0 0 0 0 0 0 0 0 0 0 0 0 0 0 0 0 0 0 0 0 0 0 0 0 0 0 0 0 0 0 0 0 
0 0 0 0 0 0 0 0 0 0 0 0 0 0 0 0 0 0 0 0 0 0 0 0 0 0 0 0 0 0 0 0 0 0 0 0 0 0 0 0 0 0 0 0 0 0 0 0 0 0 0 0 0 0 0 0 0 0 0 0 0 0 0 0 0 0 0 0 0 0 0 0 0 0 0 0 0 0 0 0 0 0 0 0 0 0 0 0 0 0 0 0 0 0 0 0 0 0 0 0 0 0 0 0 0 0 0 0 0 0 0 0 0 0 0 0 0 0 0 0 0 0 0 0 0 0 0 0 
0 0 0 0 0 0 0 0 0 0 0 0 0 0 0 0 0 0 0 0 0 0 0 0 0 0 0 0 0 0 0 0 0 0 0 0 0 0 0 0 0 0 0 0 0 0 0 0 0 0 0 0 0 0 0 0 0 0 0 0 0 0 0 0 0 0 0 0 0 0 0 0 0 0 0 0 0 0 0 0 0 0 0 0 0 0 0 0 0 0 0 0 0 0 0 0 0 0 0 0 0 0 0 0 0 0 0 0 0 0 0 0 0 0 0 0 0 0 0 0 0 0 0 0 0 0 0 0 
0 0 0 0 0 0 0 0 0 0 0 0 0 0 0 0 0 0 0 0 0 0 0 0 0 0 0 0 0 0 0 0 0 0 0 0 0 0 0 0 0 0 0 0 0 0 0 0 0 0 0 0 0 0 0 0 0 0 0 0 0 0 0 0 0 0 0 0 0 0 0 0 0 0 0 0 0 0 0 0 0 0 0 0 0 0 0 0 0 0 0 0 0 0 0 0 0 0 0 0 0 0 0 0 0 0 0 0 0 0 0 0 0 0 0 0 0 0 0 0 0 0 0 0 0 0 0 0 
0 0 0 0 0 0 0 0 0 0 0 0 0 0 0 0 0 0 0 0 0 0 0 0 0 0 0 0 0 0 0 0 0 0 0 0 0 0 0 0 0 0 0 0 0 0 0 0 0 0 0 0 0 0 0 0 0 0 0 0 0 0 0 0 0 0 0 0 0 0 0 0 0 0 0 0 0 0 0 0 0 0 0 0 0 0 0 0 0 0 0 0 0 0 0 0 0 0 0 0 0 0 0 0 0 0 0 0 0 0 0 0 0 0 0 0 0 0 0 0 0 0 0 0 0 0 0 0 
0 0 0 0 0 0 0 0 0 0 0 0 0 0 0 0 0 0 0 0 0 0 0 0 0 0 0 0 0 0 0 0 0 0 0 0 0 0 0 0 0 0 0 0 0 0 0 0 0 0 0 0 0 0 0 0 0 0 0 0 0 0 0 0 0 0 0 0 0 0 0 0 0 0 0 0 0 0 0 0 0 0 0 0 0 0 0 0 0 0 0 0 0 0 0 0 0 0 0 0 0 0 0 0 0 0 0 0 0 0 0 0 0 0 0 0 0 0 0 0 0 0 0 0 0 0 0 0 
0 0 0 0 0 0 0 0 0 0 0 0 0 0 0 0 0 0 0 0 0 0 0 0 0 0 0 0 0 0 0 0 0 0 0 0 0 0 0 0 0 0 0 0 0 0 0 0 0 0 0 0 0 0 0 0 0 0 0 0 0 0 0 0 0 0 0 0 0 0 0 0 0 0 0 0 0 0 0 0 0 0 0 0 0 0 0 0 0 0 0 0 0 0 0 0 0 0 0 0 0 0 0 0 0 0 0 0 0 0 0 0 0 0 0 0 0 0 0 0 0 0 0 0 0 0 0 0 
0 0 0 0 0 0 0 0 0 0 0 0 0 0 0 0 0 0 0 0 0 0 0 0 0 0 0 0 0 0 0 0 0 0 0 0 0 0 0 0 0 0 0 0 0 0 0 0 0 0 0 0 0 0 0 0 0 0 0 0 0 0 0 0 0 0 0 0 0 0 0 0 0 0 0 0 0 0 0 0 0 0 0 0 0 0 0 0 0 0 0 0 0 0 0 0 0 0 0 0 0 0 0 0 0 0 0 0 0 0 0 0 0 0 0 0 0 0 0 0 0 0 0 0 0 0 0 0 
0 0 0 0 0 0 0 0 0 0 0 0 0 0 0 0 0 0 0 0 0 0 0 0 0 0 0 0 0 0 0 0 0 0 0 0 0 0 0 0 0 0 0 0 0 0 0 0 0 0 0 0 0 0 0 0 0 0 0 0 0 0 0 0 0 0 0 0 0 0 0 0 0 0 0 0 0 0 0 0 0 0 0 0 0 0 0 0 0 0 0 0 0 0 0 0 0 0 0 0 0 0 0 0 0 0 0 0 0 0 0 0 0 0 0 0 0 0 0 0 0 0 0 0 0 0 0 0 
0 0 0 0 0 0 0 0 0 0 0 0 0 0 0 0 0 0 0 0 0 0 0 0 0 0 0 0 0 0 0 0 0 0 0 0 0 0 0 0 0 0 0 0 0 0 0 0 0 0 0 0 0 0 0 0 0 0 0 0 0 0 0 0 0 0 0 0 0 0 0 0 0 0 0 0 0 0 0 0 0 0 0 0 0 0 0 0 0 0 0 0 0 0 0 0 0 0 0 0 0 0 0 0 0 0 0 0 0 0 0 0 0 0 0 0 0 0 0 0 0 0 0 0 0 0 0 0 
0 0 0 0 0 0 0 0 0 0 0 0 0 0 0 0 0 0 0 0 0 0 0 0 0 0 0 0 0 0 0 0 0 0 0 0 0 0 0 0 0 0 0 0 0 0 0 0 0 0 0 0 0 0 0 0 0 0 0 0 0 0 0 0 0 0 0 0 0 0 0 0 0 0 0 0 0 0 0 0 0 0 0 0 0 0 0 0 0 0 0 0 0 0 0 0 0 0 0 0 0 0 0 0 0 0 0 0 0 0 0 0 0 0 0 0 0 0 0 0 0 0 0 0 0 0 0 0 
0 0 0 0 0 0 0 0 0 0 0 0 0 0 0 0 0 0 0 0 0 0 0 0 0 0 0 0 0 0 0 0 0 0 0 0 0 0 0 0 0 0 0 0 0 0 0 0 0 0 0 0 0 0 0 0 0 0 0 0 0 0 0 0 0 0 0 0 0 0 0 0 0 0 0 0 0 0 0 0 0 0 0 0 0 0 0 0 0 0 0 0 0 0 0 0 0 0 0 0 0 0 0 0 0 0 0 0 0 0 0 0 0 0 0 0 0 0 0 0 0 0 0 0 0 0 0 0 
0 0 0 0 0 0 0 0 0 0 0 0 0 0 0 0 0 0 0 0 0 0 0 0 0 0 0 0 0 0 0 0 0 0 0 0 0 0 0 0 0 0 0 0 0 0 0 0 0 0 0 0 0 0 0 0 0 0 0 0 0 0 0 0 0 0 0 0 0 0 0 0 0 0 0 0 0 0 0 0 0 0 0 0 0 0 0 0 0 0 0 0 0 0 0 0 0 0 0 0 0 0 0 0 0 0 0 0 0 0 0 0 0 0 0 0 0 0 0 0 0 0 0 0 0 0 0 0 
0 0 0 0 0 0 0 0 0 0 0 0 0 0 0 0 0 0 0 0 0 0 0 0 0 0 0 0 0 0 0 0 0 0 0 0 0 0 0 0 0 0 0 0 0 0 0 0 0 0 0 0 0 0 0 0 0 0 0 0 0 0 0 0 0 0 0 0 0 0 0 0 0 0 0 0 0 0 0 0 0 0 0 0 0 0 0 0 0 0 0 0 0 0 0 0 0 0 0 0 0 0 0 0 0 0 0 0 0 0 0 0 0 0 0 0 0 0 0 0 0 0 0 0 0 0 0 0 
0 0 0 0 0 0 0 0 0 0 0 0 0 0 0 0 0 0 0 0 0 0 0 0 0 0 0 0 0 0 0 0 0 0 0 0 0 0 0 0 0 0 0 0 0 0 0 0 0 0 0 0 0 0 0 0 0 0 0 0 0 0 0 0 0 0 0 0 0 0 0 0 0 0 0 0 0 0 0 0 0 0 0 0 0 0 0 0 0 0 0 0 0 0 0 0 0 0 0 0 0 0 0 0 0 0 0 0 0 0 0 0 0 0 0 0 0 0 0 0 0 0 0 0 0 0 0 0 
0 0 0 0 0 0 0 0 0 0 0 0 0 0 0 0 0 0 0 0 0 0 0 0 0 0 0 0 0 0 0 0 0 0 0 0 0 0 0 0 0 0 0 0 0 0 0 0 0 0 0 0 0 0 0 0 0 0 0 0 0 0 0 0 0 0 0 0 0 0 0 0 0 0 0 0 0 0 0 0 0 0 0 0 0 0 0 0 0 0 0 0 0 0 0 0 0 0 0 0 0 0 0 0 0 0 0 0 0 0 0 0 0 0 0 0 0 0 0 0 0 0 0 0 0 0 0 0 
0 0 0 0 0 0 0 0 0 0 0 0 0 0 0 0 0 0 0 0 0 0 0 0 0 0 0 0 0 0 0 0 0 0 0 0 0 0 0 0 0 0 0 0 0 0 0 0 0 0 0 0 0 0 0 0 0 0 0 0 0 0 0 0 0 0 0 0 0 0 0 0 0 0 0 0 0 0 0 0 0 0 0 0 0 0 0 0 0 0 0 0 0 0 0 0 0 0 0 0 0 0 0 0 0 0 0 0 0 0 0 0 0 0 0 0 0 0 0 0 0 0 0 0 0 0 0 0 
0 0 0 0 0 0 0 0 0 0 0 0 0 0 0 0 0 0 0 0 0 0 0 0 0 0 0 0 0 0 0 0 0 0 0 0 0 0 0 0 0 0 0 0 0 0 0 0 0 0 0 0 0 0 0 0 0 0 0 0 0 0 0 0 0 0 0 0 0 0 0 0 0 0 0 0 0 0 0 0 0 0 0 0 0 0 0 0 0 0 0 0 0 0 0 0 0 0 0 0 0 0 0 0 0 0 0 0 0 0 0 0 0 0 0 0 0 0 0 0 0 0 0 0 0 0 0 0 
0 0 0 0 0 0 0 0 0 0 0 0 0 0 0 0 0 0 0 0 0 0 0 0 0 0 0 0 0 0 0 0 0 0 0 0 0 0 0 0 0 0 0 0 0 0 0 0 0 0 0 0 0 0 0 0 0 0 0 0 0 0 0 0 0 0 0 0 0 0 0 0 0 0 0 0 0 0 0 0 0 0 0 0 0 0 0 0 0 0 0 0 0 0 0 0 0 0 0 0 0 0 0 0 0 0 0 0 0 0 0 0 0 0 0 0 0 0 0 0 0 0 0 0 0 0 0 0 
0 0 0 0 0 0 0 0 0 0 0 0 0 0 0 0 0 0 0 0 0 0 0 0 0 0 0 0 0 0 0 0 0 0 0 0 0 0 0 0 0 0 0 0 0 0 0 0 0 0 0 0 0 0 0 0 0 0 0 0 0 0 0 0 0 0 0 0 0 0 0 0 0 0 0 0 0 0 0 0 0 0 0 0 0 0 0 0 0 0 0 0 0 0 0 0 0 0 0 0 0 0 0 0 0 0 0 0 0 0 0 0 0 0 0 0 0 0 0 0 0 0 0 0 0 0 0 0 
0 0 0 0 0 0 0 0 0 0 0 0 0 0 0 0 0 0 0 0 0 0 0 0 0 0 0 0 0 0 0 0 0 0 0 0 0 0 0 0 0 0 0 0 0 0 0 0 0 0 0 0 0 0 0 0 0 0 0 0 0 0 0 0 0 0 0 0 0 0 0 0 0 0 0 0 0 0 0 0 0 0 0 0 0 0 0 0 0 0 0 0 0 0 0 0 0 0 0 0 0 0 0 0 0 0 0 0 0 0 0 0 0 0 0 0 0 0 0 0 0 0 0 0 0 0 0 0 
0 0 0 0 0 0 0 0 0 0 0 0 0 0 0 0 0 0 0 0 0 0 0 0 0 0 0 0 0 0 0 0 0 0 0 0 0 0 0 0 0 0 0 0 0 0 0 0 0 0 0 0 0 0 0 0 0 0 0 0 0 0 0 0 0 0 0 0 0 0 0 0 0 0 0 0 0 0 0 0 0 0 0 0 0 0 0 0 0 0 0 0 0 0 0 0 0 0 0 0 0 0 0 0 0 0 0 0 0 0 0 0 0 0 0 0 0 0 0 0 0 0 0 0 0 0 0 0 
0 0 0 0 0 0 0 0 0 0 0 0 0 0 0 0 0 0 0 0 0 0 0 0 0 0 0 0 0 0 0 0 0 0 0 0 0 0 0 0 0 0 0 0 0 0 0 0 0 0 0 0 0 0 0 0 0 0 0 0 0 0 0 0 0 0 0 0 0 0 0 0 0 0 0 0 0 0 0 0 0 0 0 0 0 0 0 0 0 0 0 0 0 0 0 0 0 0 0 0 0 0 0 0 0 0 0 0 0 0 0 0 0 0 0 0 0 0 0 0 0 0 0 0 0 0 0 0 
